<svg xmlns="http://www.w3.org/2000/svg" version="1.1" xmlns:xlink="http://www.w3.org/1999/xlink" xmlns:svgjs="http://svgjs.dev/svgjs" width="100%" height="100%" viewBox="0 0 1000 600"><rect width="1000" height="600" x="0" y="0" fill="#002211"/><g><rect width="333.3333333333333" height="333.3333333333333" rx="13.333333333333334" ry="13.333333333333334" y="125.53898657824192" fill="#44aa33" transform="matrix(1.2098716785758488,0,0,1.2098716785758488,0,-53.53132605101038)" x="103.31674194335938"/><path d="M298.322121270415 325.0531436042401L298.322121270415 325.0531436042401Q298.322121270415 313.70555426667687 293.90412648832375 307.56272590527595Q289.4861317062324 301.4198975438751 282.19341429195845 298.9990784851949Q274.9006968776845 296.60851966474826 266.18574826643595 296.60851966474826L266.18574826643595 296.60851966474826L240.58558672089328 296.60851966474826L240.58558672089328 351.6216327732548L265.3082013576644 351.6216327732548Q270.8458249543952 351.6216327732548 276.6255304569941 350.53226419684876Q282.40523595959297 349.4428956204427 287.3679150298873 346.628693464727Q292.33059410018166 343.7842310707778 295.3263576852983 338.609730332849Q298.322121270415 333.43522959492014 298.322121270415 325.0531436042401ZM292.33059410018166 255.96901971715516L292.33059410018166 255.96901971715516Q292.33059410018166 243.22945942085082 284.4326719212376 237.84313701528748Q276.53474974229357 232.45681460972412 262.9176425372177 232.45681460972412L262.9176425372177 232.45681460972412L240.58558672089328 232.45681460972412L240.58558672089328 281.02449697449475L264.7635170694614 281.02449697449475Q278.0477616539687 281.02449697449475 285.18917787707517 275.09349028072836Q292.33059410018166 269.16248358696197 292.33059410018166 255.96901971715516ZM318.23335802805934 324.38741836310305L318.23335802805934 324.38741836310305Q318.23335802805934 336.58229437120434 313.39171991069895 344.8735996471839Q308.5500817933387 353.1649049231634 300.44033794676017 358.0670635169907Q292.33059410018166 362.96922211081807 282.344715483126 365.0874387871632Q272.38909710430386 367.2056554635083 262.0400956284462 367.2056554635083L262.0400956284462 367.2056554635083L221.73345830142156 367.2056554635083L221.73345830142156 217.20565454003912L258.65094894629397 217.20565454003912Q268.5763070868826 217.20565454003912 277.9872411775017 218.99100859581577Q287.4284355063543 220.80662288982586 294.9934950647298 225.10357671898313Q302.5585546231053 229.4005305481404 307.12785059636406 236.69324796241438Q311.6971465696229 243.98596537668837 311.6971465696229 255.00069209368309L311.6971465696229 255.00069209368309Q311.6971465696229 264.6839683284037 307.73305536103413 271.40174121624113Q303.7689641524454 278.0892538658451 297.38405388517646 282.1138655509008Q290.9991436179075 286.1687374741901 283.82746715656754 287.8027903387992L283.82746715656754 287.8027903387992Q292.2095531472476 289.10398058283977 300.10747532619166 292.85625012379404Q308.00539750513565 296.60851966474826 313.1193777665975 304.17357922312374Q318.23335802805934 311.7688990197327 318.23335802805934 324.38741836310305Z " fill="#002211" transform="matrix(1.2098716785758488,0,0,1.2098716785758488,0,-53.53132605101038)"/><path d="M564.9998936149755 258.5669633216379L564.9998936149755 258.5669633216379Q579.7580452580523 258.5669633216379 589.6792607946459 265.24523305956654Q599.6279589227536 271.9235027974952 604.6297905783215 284.09829083824576Q609.6316222338894 296.27307887899633 609.6316222338894 312.7901163789763L609.6316222338894 312.7901163789763Q609.6316222338894 328.70253686564575 604.492377620751 340.9872552724528Q599.3256504160984 353.24449108774564 589.4044348795048 360.2250693323295Q579.4557367513971 367.20564757691335 564.8075154743766 367.20564757691335L564.8075154743766 367.20564757691335Q550.1592941973562 367.20564757691335 540.1831134777344 360.4724126559565Q530.1794501665984 353.73917773499966 525.0951707364882 341.536907102735Q519.9834087148638 329.30715387895617 519.9834087148638 312.982494519575L519.9834087148638 312.982494519575Q519.9834087148638 296.85021330079263 525.1226533280023 284.5929774854997Q530.2893805326548 272.30825907869274 540.3205264353049 265.4376112001653Q550.3516723379549 258.5669633216379 564.9998936149755 258.5669633216379ZM564.9998936149755 272.11588093809394L564.9998936149755 272.11588093809394Q551.5609063645758 272.11588093809394 544.6627758945342 282.06457906620165Q537.7921280160068 292.01327719430935 537.7921280160068 312.982494519575L537.7921280160068 312.982494519575Q537.7921280160068 333.56695556364315 544.5803281199919 343.54313628326497Q551.341045632463 353.54679959440085 564.8075154743766 353.54679959440085L564.8075154743766 353.54679959440085Q578.2739853162904 353.54679959440085 585.0347028287613 343.54313628326497Q591.8229029327464 333.56695556364315 591.8229029327464 312.7901163789763L591.8229029327464 312.7901163789763Q591.8229029327464 292.01327719430935 585.0896680117896 282.06457906620165Q578.3564330908328 272.11588093809394 564.9998936149755 272.11588093809394ZM644.0673094010689 218.99203154132L660.6667946755911 217.20566309290285L660.6667946755911 275.00155304707545Q666.8228951747517 266.7842581843567 675.7547374168373 262.66186945724024Q684.7140622504371 258.5669633216379 693.9207304076638 258.5669633216379L693.9207304076638 258.5669633216379Q709.1460861064805 258.5669633216379 716.1816295340927 266.67432781830024Q723.2171729617047 274.7816923149626 723.2171729617047 289.2375354513843L723.2171729617047 289.2375354513843L723.2171729617047 364.9245924812423L706.5902050956684 364.9245924812423L706.5902050956684 289.6222917325818Q706.5902050956684 280.2232454347563 702.2204730449249 275.9359611585552Q697.8782235856957 271.62119429084 688.5891076539266 271.62119429084L688.5891076539266 271.62119429084Q682.6528678868789 271.62119429084 677.2937625416275 274.2870056677086Q671.9621397878902 276.9802996360914 667.7023381032031 280.93779281412316Q663.4425364185162 284.8952859921549 660.6667946755911 289.0451573107855L660.6667946755911 289.0451573107855L660.6667946755911 364.9245924812423L644.0673094010689 364.9245924812423L644.0673094010689 218.99203154132Z " fill="#44aa33" transform="matrix(1.2098716785758488,0,0,1.2098716785758488,0,-53.53132605101038)"/></g></svg>